<svg width="968" height="311" viewBox="0 0 968 311" fill="none" xmlns="http://www.w3.org/2000/svg">
<path d="M457.327 243V78.84H484.801V217.236H557.305V243H457.327ZM608.765 246.42C599.873 246.42 592.349 244.748 586.193 241.404C580.037 237.984 575.363 233.462 572.171 227.838C569.055 222.214 567.497 216.02 567.497 209.256C567.497 203.328 568.485 198.008 570.461 193.296C572.437 188.508 575.477 184.404 579.581 180.984C583.685 177.488 589.005 174.638 595.541 172.434C600.481 170.838 606.257 169.394 612.869 168.102C619.557 166.81 626.777 165.632 634.529 164.568C642.357 163.428 650.527 162.212 659.039 160.92L649.235 166.506C649.311 157.994 647.411 151.724 643.535 147.696C639.659 143.668 633.123 141.654 623.927 141.654C618.379 141.654 613.021 142.946 607.853 145.53C602.685 148.114 599.075 152.56 597.023 158.868L571.943 151.002C574.983 140.59 580.759 132.23 589.271 125.922C597.859 119.614 609.411 116.46 623.927 116.46C634.871 116.46 644.485 118.246 652.769 121.818C661.129 125.39 667.323 131.242 671.351 139.374C673.555 143.706 674.885 148.152 675.341 152.712C675.797 157.196 676.025 162.098 676.025 167.418V243H651.971V216.324L655.961 220.656C650.413 229.548 643.915 236.084 636.467 240.264C629.095 244.368 619.861 246.42 608.765 246.42ZM614.237 224.532C620.469 224.532 625.789 223.43 630.197 221.226C634.605 219.022 638.101 216.324 640.685 213.132C643.345 209.94 645.131 206.938 646.043 204.126C647.487 200.63 648.285 196.64 648.437 192.156C648.665 187.596 648.779 183.91 648.779 181.098L657.215 183.606C648.931 184.898 641.825 186.038 635.897 187.026C629.969 188.014 624.877 188.964 620.621 189.876C616.365 190.712 612.603 191.662 609.335 192.726C606.143 193.866 603.445 195.196 601.241 196.716C599.037 198.236 597.327 199.984 596.111 201.96C594.971 203.936 594.401 206.254 594.401 208.914C594.401 211.954 595.161 214.652 596.681 217.008C598.201 219.288 600.405 221.112 603.293 222.48C606.257 223.848 609.905 224.532 614.237 224.532ZM788.582 243V183.72C788.582 179.844 788.316 175.55 787.784 170.838C787.252 166.126 785.998 161.604 784.022 157.272C782.122 152.864 779.234 149.254 775.358 146.442C771.558 143.63 766.39 142.224 759.854 142.224C756.358 142.224 752.9 142.794 749.48 143.934C746.06 145.074 742.944 147.05 740.132 149.862C737.396 152.598 735.192 156.398 733.52 161.262C731.848 166.05 731.012 172.206 731.012 179.73L714.71 172.776C714.71 162.288 716.724 152.788 720.752 144.276C724.856 135.764 730.86 129 738.764 123.984C746.668 118.892 756.396 116.346 767.948 116.346C777.068 116.346 784.592 117.866 790.52 120.906C796.448 123.946 801.16 127.822 804.656 132.534C808.152 137.246 810.736 142.262 812.408 147.582C814.08 152.902 815.144 157.956 815.6 162.744C816.132 167.456 816.398 171.294 816.398 174.258V243H788.582ZM703.196 243V119.88H727.706V158.07H731.012V243H703.196ZM891.225 246.42C879.901 246.42 870.021 243.57 861.585 237.87C853.149 232.17 846.613 224.418 841.977 214.614C837.341 204.81 835.023 193.752 835.023 181.44C835.023 168.976 837.341 157.88 841.977 148.152C846.689 138.348 853.339 130.634 861.927 125.01C870.515 119.31 880.623 116.46 892.251 116.46C903.955 116.46 913.759 119.31 921.663 125.01C929.643 130.634 935.685 138.348 939.789 148.152C943.893 157.956 945.945 169.052 945.945 181.44C945.945 193.676 943.893 204.734 939.789 214.614C935.685 224.418 929.567 232.17 921.435 237.87C913.303 243.57 903.233 246.42 891.225 246.42ZM895.443 221.796C902.815 221.796 908.743 220.124 913.227 216.78C917.787 213.36 921.093 208.61 923.145 202.53C925.273 196.45 926.337 189.42 926.337 181.44C926.337 173.384 925.273 166.354 923.145 160.35C921.093 154.27 917.863 149.558 913.455 146.214C909.047 142.794 903.347 141.084 896.355 141.084C888.983 141.084 882.903 142.908 878.115 146.556C873.327 150.128 869.793 154.992 867.513 161.148C865.233 167.228 864.093 173.992 864.093 181.44C864.093 188.964 865.195 195.804 867.399 201.96C869.679 208.04 873.137 212.866 877.773 216.438C882.409 220.01 888.299 221.796 895.443 221.796ZM926.337 243V156.588H922.917V78.84H950.619V243H926.337Z" fill="#14A3D6"/>
<path d="M199.381 74.959C209.912 74.959 219.374 77.3245 227.769 82.0557C236.163 86.7107 242.765 93.1975 247.572 101.516C252.38 109.757 254.783 119.259 254.783 130.019C254.783 137.879 253.715 144.48 251.578 149.822C249.441 155.164 246.236 160.086 241.963 164.588C237.766 169.09 232.539 174.09 226.281 179.584L184.014 217.016H254.783V243H141.346V218.961L211.857 156.117C217.352 151.233 221.168 146.616 223.305 142.267C225.441 137.917 226.51 133.719 226.51 129.675C226.51 124.181 225.327 119.297 222.961 115.023C220.595 110.674 217.314 107.239 213.117 104.721C208.996 102.202 204.227 100.943 198.809 100.943C193.085 100.943 188.01 102.279 183.584 104.95C179.234 107.545 175.838 111.017 173.396 115.366C170.954 119.716 169.809 124.41 169.962 129.446H141.574C141.574 118.457 144.016 108.88 148.9 100.715C153.861 92.5495 160.652 86.2153 169.275 81.7129C177.975 77.2104 188.01 74.959 199.381 74.959Z" fill="white"/>
<path d="M68.1084 78.3926C69.7109 78.3926 71.7718 78.4685 74.29 78.6211C76.8083 78.6974 79.1358 78.927 81.2725 79.3086C90.8115 80.7585 98.6722 83.9256 104.854 88.8096C111.111 93.6935 115.728 99.875 118.704 107.354C121.756 114.756 123.282 122.997 123.282 132.078C123.282 141.083 121.756 149.325 118.704 156.804C115.652 164.206 110.996 170.349 104.738 175.233C98.557 180.117 90.7351 183.284 81.2725 184.734C79.1358 185.04 76.7703 185.268 74.1758 185.421C71.6575 185.574 69.6346 185.65 68.1084 185.65H27.5869V243.229H0V78.3926H68.1084ZM27.5869 159.895H66.9639C68.4901 159.895 70.2074 159.819 72.1152 159.666C74.023 159.513 75.7783 159.208 77.3809 158.75C81.9595 157.605 85.546 155.582 88.1406 152.683C90.8115 149.783 92.6816 146.502 93.75 142.839C94.8947 139.176 95.4668 135.589 95.4668 132.078C95.4667 128.568 94.8946 124.981 93.75 121.318C92.6816 117.579 90.8115 114.259 88.1406 111.359C85.5461 108.46 81.9594 106.438 77.3809 105.293C75.7783 104.835 74.023 104.568 72.1152 104.491C70.2074 104.339 68.4901 104.263 66.9639 104.263H27.5869V159.895Z" fill="white"/>
<rect x="281.205" y="252.363" width="137.88" height="26.0157" fill="url(#paint0_linear_1736_1467)"/>
<defs>
<linearGradient id="paint0_linear_1736_1467" x1="252.199" y1="265.371" x2="462.943" y2="265.371" gradientUnits="userSpaceOnUse">
<stop stop-color="#9AE4FF"/>
<stop offset="0.471154" stop-color="#14A3D6"/>
<stop offset="1" stop-color="#1A386F"/>
</linearGradient>
</defs>
</svg>
