<svg width="1487" height="311" viewBox="0 0 1487 311" fill="none" xmlns="http://www.w3.org/2000/svg">
<path d="M977.24 243V78.84H1004.71V217.236H1077.22V243H977.24ZM1128.68 246.42C1119.79 246.42 1112.26 244.748 1106.11 241.404C1099.95 237.984 1095.28 233.462 1092.08 227.838C1088.97 222.214 1087.41 216.02 1087.41 209.256C1087.41 203.328 1088.4 198.008 1090.37 193.296C1092.35 188.508 1095.39 184.404 1099.49 180.984C1103.6 177.488 1108.92 174.638 1115.45 172.434C1120.39 170.838 1126.17 169.394 1132.78 168.102C1139.47 166.81 1146.69 165.632 1154.44 164.568C1162.27 163.428 1170.44 162.212 1178.95 160.92L1169.15 166.506C1169.22 157.994 1167.32 151.724 1163.45 147.696C1159.57 143.668 1153.04 141.654 1143.84 141.654C1138.29 141.654 1132.93 142.946 1127.77 145.53C1122.6 148.114 1118.99 152.56 1116.94 158.868L1091.86 151.002C1094.9 140.59 1100.67 132.23 1109.18 125.922C1117.77 119.614 1129.32 116.46 1143.84 116.46C1154.78 116.46 1164.4 118.246 1172.68 121.818C1181.04 125.39 1187.24 131.242 1191.26 139.374C1193.47 143.706 1194.8 148.152 1195.25 152.712C1195.71 157.196 1195.94 162.098 1195.94 167.418V243H1171.88V216.324L1175.87 220.656C1170.33 229.548 1163.83 236.084 1156.38 240.264C1149.01 244.368 1139.77 246.42 1128.68 246.42ZM1134.15 224.532C1140.38 224.532 1145.7 223.43 1150.11 221.226C1154.52 219.022 1158.01 216.324 1160.6 213.132C1163.26 209.94 1165.04 206.938 1165.96 204.126C1167.4 200.63 1168.2 196.64 1168.35 192.156C1168.58 187.596 1168.69 183.91 1168.69 181.098L1177.13 183.606C1168.84 184.898 1161.74 186.038 1155.81 187.026C1149.88 188.014 1144.79 188.964 1140.53 189.876C1136.28 190.712 1132.52 191.662 1129.25 192.726C1126.06 193.866 1123.36 195.196 1121.15 196.716C1118.95 198.236 1117.24 199.984 1116.02 201.96C1114.88 203.936 1114.31 206.254 1114.31 208.914C1114.31 211.954 1115.07 214.652 1116.59 217.008C1118.11 219.288 1120.32 221.112 1123.21 222.48C1126.17 223.848 1129.82 224.532 1134.15 224.532ZM1308.5 243V183.72C1308.5 179.844 1308.23 175.55 1307.7 170.838C1307.17 166.126 1305.91 161.604 1303.94 157.272C1302.04 152.864 1299.15 149.254 1295.27 146.442C1291.47 143.63 1286.3 142.224 1279.77 142.224C1276.27 142.224 1272.81 142.794 1269.39 143.934C1265.97 145.074 1262.86 147.05 1260.05 149.862C1257.31 152.598 1255.11 156.398 1253.43 161.262C1251.76 166.05 1250.93 172.206 1250.93 179.73L1234.62 172.776C1234.62 162.288 1236.64 152.788 1240.67 144.276C1244.77 135.764 1250.77 129 1258.68 123.984C1266.58 118.892 1276.31 116.346 1287.86 116.346C1296.98 116.346 1304.51 117.866 1310.43 120.906C1316.36 123.946 1321.07 127.822 1324.57 132.534C1328.07 137.246 1330.65 142.262 1332.32 147.582C1333.99 152.902 1335.06 157.956 1335.51 162.744C1336.05 167.456 1336.31 171.294 1336.31 174.258V243H1308.5ZM1223.11 243V119.88H1247.62V158.07H1250.93V243H1223.11ZM1411.14 246.42C1399.81 246.42 1389.93 243.57 1381.5 237.87C1373.06 232.17 1366.53 224.418 1361.89 214.614C1357.25 204.81 1354.94 193.752 1354.94 181.44C1354.94 168.976 1357.25 157.88 1361.89 148.152C1366.6 138.348 1373.25 130.634 1381.84 125.01C1390.43 119.31 1400.54 116.46 1412.16 116.46C1423.87 116.46 1433.67 119.31 1441.58 125.01C1449.56 130.634 1455.6 138.348 1459.7 148.152C1463.81 157.956 1465.86 169.052 1465.86 181.44C1465.86 193.676 1463.81 204.734 1459.7 214.614C1455.6 224.418 1449.48 232.17 1441.35 237.87C1433.22 243.57 1423.15 246.42 1411.14 246.42ZM1415.36 221.796C1422.73 221.796 1428.66 220.124 1433.14 216.78C1437.7 213.36 1441.01 208.61 1443.06 202.53C1445.19 196.45 1446.25 189.42 1446.25 181.44C1446.25 173.384 1445.19 166.354 1443.06 160.35C1441.01 154.27 1437.78 149.558 1433.37 146.214C1428.96 142.794 1423.26 141.084 1416.27 141.084C1408.9 141.084 1402.82 142.908 1398.03 146.556C1393.24 150.128 1389.71 154.992 1387.43 161.148C1385.15 167.228 1384.01 173.992 1384.01 181.44C1384.01 188.964 1385.11 195.804 1387.31 201.96C1389.59 208.04 1393.05 212.866 1397.69 216.438C1402.32 220.01 1408.21 221.796 1415.36 221.796ZM1446.25 243V156.588H1442.83V78.84H1470.53V243H1446.25Z" fill="#14A3D6"/>
<path d="M719.294 74.959C729.825 74.959 739.287 77.3245 747.682 82.0557C756.076 86.7107 762.678 93.1975 767.485 101.516C772.293 109.757 774.696 119.259 774.696 130.019C774.696 137.879 773.628 144.48 771.491 149.822C769.355 155.164 766.149 160.086 761.876 164.588C757.679 169.09 752.452 174.09 746.194 179.584L703.927 217.016H774.696V243H661.259V218.961L731.771 156.117C737.265 151.233 741.081 146.616 743.218 142.267C745.354 137.917 746.423 133.719 746.423 129.675C746.423 124.181 745.24 119.297 742.874 115.023C740.508 110.674 737.227 107.239 733.03 104.721C728.909 102.202 724.14 100.943 718.722 100.943C712.998 100.943 707.923 102.279 703.497 104.95C699.147 107.545 695.752 111.017 693.31 115.366C690.868 119.716 689.722 124.41 689.875 129.446H661.487C661.487 118.457 663.93 108.88 668.813 100.715C673.774 92.5495 680.565 86.2153 689.188 81.7129C697.888 77.2104 707.923 74.959 719.294 74.959Z" fill="#00233A"/>
<path d="M585.302 116.168C598.122 116.168 608.997 119.182 617.926 125.211C626.931 131.163 633.607 139.596 637.957 150.509C642.307 161.422 643.948 174.28 642.88 189.085H553.402C554.329 197.961 556.949 205.096 561.264 210.49C566.758 217.358 574.771 220.793 585.302 220.793C592.094 220.793 597.931 219.304 602.815 216.328C607.776 213.276 611.592 208.888 614.263 203.164L641.506 211.406C636.775 222.548 629.449 231.209 619.528 237.391C609.684 243.572 598.809 246.663 586.904 246.663C574.389 246.663 563.4 243.953 553.938 238.535C544.475 233.117 537.072 225.601 531.73 215.985C526.465 206.37 523.833 195.304 523.833 182.789C523.833 169.282 526.427 157.568 531.616 147.647C536.805 137.651 544.017 129.905 553.251 124.41C562.485 118.916 573.168 116.168 585.302 116.168ZM586.447 140.321C575.153 140.321 566.758 143.832 561.264 150.853C557.734 155.314 555.34 161.113 554.078 168.251H614.877C613.881 160.203 611.731 153.983 608.425 149.593C603.77 143.412 596.444 140.321 586.447 140.321Z" fill="#00233A"/>
<path d="M454.715 246.663C439.452 246.663 427.052 243.229 417.513 236.361C407.974 229.492 402.174 219.839 400.113 207.4L428.273 203.05C429.723 209.155 432.928 213.963 437.888 217.473C442.848 220.984 449.106 222.739 456.661 222.739C463.3 222.739 468.413 221.441 471.999 218.847C475.662 216.176 477.494 212.551 477.494 207.972C477.494 205.149 476.807 202.897 475.434 201.219C474.136 199.463 471.236 197.784 466.734 196.182C462.232 194.579 455.325 192.557 446.015 190.115C435.637 187.368 427.395 184.43 421.29 181.301C415.185 178.096 410.797 174.318 408.126 169.968C405.455 165.619 404.12 160.353 404.12 154.172C404.12 146.464 406.142 139.749 410.187 134.025C414.231 128.302 419.878 123.914 427.128 120.861C434.378 117.732 442.925 116.168 452.769 116.168C462.384 116.168 470.893 117.656 478.295 120.632C485.774 123.608 491.802 127.844 496.381 133.338C500.96 138.833 503.783 145.281 504.852 152.684L476.693 157.72C476.006 152.455 473.602 148.296 469.481 145.243C465.437 142.191 460.018 140.474 453.227 140.092C446.74 139.71 441.513 140.703 437.545 143.068C433.576 145.358 431.592 148.601 431.592 152.798C431.592 155.164 432.393 157.186 433.996 158.865C435.599 160.544 438.804 162.223 443.611 163.902C448.495 165.58 455.745 167.641 465.36 170.083C475.205 172.601 483.065 175.501 488.941 178.783C494.893 181.988 499.167 185.842 501.761 190.344C504.432 194.846 505.768 200.303 505.768 206.713C505.768 219.152 501.227 228.92 492.146 236.017C483.141 243.114 470.664 246.663 454.715 246.663Z" fill="#00233A"/>
<path d="M329.738 116.168C340.727 116.168 350.38 117.961 358.698 121.548C367.093 125.135 373.312 131.011 377.356 139.177C379.569 143.527 380.905 147.991 381.363 152.569C381.821 157.072 382.05 161.994 382.05 167.336V243.229H357.897V226.589C353.272 232.62 348.084 237.252 342.329 240.481C334.927 244.602 325.655 246.663 314.514 246.663C305.585 246.663 298.03 244.984 291.849 241.626C285.668 238.192 280.975 233.651 277.77 228.004C274.641 222.357 273.076 216.137 273.076 209.346C273.076 203.393 274.069 198.052 276.053 193.32C278.037 188.513 281.089 184.391 285.21 180.957C289.331 177.447 294.673 174.585 301.235 172.372C306.196 170.77 311.996 169.32 318.635 168.022C325.35 166.725 332.6 165.542 340.384 164.474C345.137 163.781 350.015 163.059 355.019 162.312C354.528 155.826 352.666 150.899 349.427 147.532C345.535 143.488 338.972 141.466 329.738 141.466C324.167 141.466 318.787 142.763 313.598 145.357C308.409 147.952 304.784 152.416 302.724 158.75L277.54 150.853C280.593 140.398 286.393 132.003 294.939 125.669C303.563 119.335 315.163 116.168 329.738 116.168ZM354.635 184.935C349.858 185.694 345.565 186.39 341.757 187.024C335.805 188.016 330.691 188.97 326.418 189.886C322.145 190.725 318.367 191.68 315.086 192.748C311.881 193.893 309.172 195.228 306.959 196.754C304.746 198.28 303.029 200.035 301.808 202.02C300.663 204.004 300.091 206.332 300.091 209.003C300.091 212.055 300.854 214.764 302.38 217.13C303.906 219.419 306.12 221.25 309.02 222.624C311.996 223.998 315.658 224.685 320.008 224.685C326.265 224.685 331.608 223.578 336.034 221.365C340.46 219.152 343.97 216.443 346.564 213.238C349.235 210.033 351.03 207.018 351.945 204.194C353.395 200.684 354.196 196.678 354.349 192.176C354.485 189.451 354.58 187.038 354.635 184.935Z" fill="#00233A"/>
<path d="M165.956 133.318C169.111 129.617 172.812 126.418 177.06 123.723C184.996 118.61 194.765 116.053 206.364 116.053C215.521 116.053 223.076 117.579 229.028 120.632C234.981 123.684 239.712 127.576 243.223 132.308C246.733 137.039 249.328 142.076 251.007 147.418C252.686 152.76 253.754 157.834 254.212 162.642C254.746 167.373 255.013 171.227 255.013 174.203V243.229H227.083V183.704C227.083 179.812 226.815 175.501 226.281 170.77C225.747 166.038 224.488 161.497 222.504 157.147C220.596 152.721 217.697 149.096 213.805 146.272C209.989 143.449 204.799 142.037 198.236 142.037C194.726 142.037 191.254 142.61 187.82 143.755C184.386 144.9 181.257 146.883 178.434 149.707C175.686 152.454 173.473 156.269 171.794 161.153C170.115 165.961 169.276 172.143 169.276 179.698V243.229H141.346V78.3926H165.956V133.318Z" fill="#00233A"/>
<path d="M68.1084 78.3926C69.711 78.3926 71.7717 78.4685 74.29 78.6211C76.8083 78.6974 79.1358 78.927 81.2725 79.3086C90.8114 80.7585 98.6713 83.9256 104.853 88.8096C111.11 93.6936 115.727 99.8749 118.703 107.354C121.756 114.756 123.282 122.997 123.282 132.078C123.282 141.083 121.756 149.325 118.703 156.804C115.651 164.206 110.996 170.349 104.738 175.233C98.557 180.117 90.7351 183.284 81.2725 184.734C79.1358 185.04 76.7703 185.268 74.1758 185.421C71.6575 185.574 69.6346 185.65 68.1084 185.65H27.5869V243.229H0V78.3926H68.1084ZM27.5869 159.895H66.9639C68.4901 159.895 70.2074 159.819 72.1152 159.666C74.023 159.513 75.7784 159.208 77.3809 158.75C81.9595 157.605 85.5461 155.582 88.1406 152.683C90.8114 149.783 92.6807 146.502 93.749 142.839C94.8937 139.176 95.4668 135.589 95.4668 132.078C95.4667 128.568 94.8937 124.981 93.749 121.318C92.6806 117.579 90.8115 114.259 88.1406 111.359C85.5461 108.46 81.9594 106.438 77.3809 105.293C75.7784 104.835 74.023 104.568 72.1152 104.491C70.2074 104.339 68.4901 104.263 66.9639 104.263H27.5869V159.895Z" fill="#00233A"/>
<rect x="801.118" y="252.363" width="137.88" height="26.0157" fill="url(#paint0_linear_1736_1423)"/>
<defs>
<linearGradient id="paint0_linear_1736_1423" x1="772.112" y1="265.371" x2="982.856" y2="265.371" gradientUnits="userSpaceOnUse">
<stop stop-color="#9AE4FF"/>
<stop offset="0.471154" stop-color="#14A3D6"/>
<stop offset="1" stop-color="#1A386F"/>
</linearGradient>
</defs>
</svg>
