<svg width="1034" height="224" viewBox="0 0 1034 224" fill="none" xmlns="http://www.w3.org/2000/svg">
<path d="M728.162 185.041V158.57L805.809 89.369C811.859 83.9909 816.061 78.9069 818.413 74.1171C820.766 69.3272 821.943 64.7054 821.943 60.2516C821.943 54.2013 820.64 48.8231 818.035 44.1173C815.43 39.3274 811.817 35.5459 807.195 32.7728C802.657 29.9998 797.405 28.6132 791.439 28.6132C785.136 28.6132 779.548 30.0838 774.674 33.0249C769.884 35.8821 766.145 39.7056 763.456 44.4954C760.767 49.2853 759.506 54.4533 759.674 59.9995H728.414C728.414 47.8988 731.103 37.3527 736.481 28.3611C741.943 19.3696 749.422 12.3949 758.918 7.43692C768.498 2.47898 779.548 0 792.069 0C803.666 0 814.086 2.60502 823.329 7.81506C832.573 12.9411 839.842 20.0839 845.136 29.2435C850.43 38.319 853.077 48.7811 853.077 60.6298C853.077 69.2852 851.901 76.554 849.548 82.4363C847.195 88.3186 843.665 93.7387 838.96 98.6967C834.338 103.655 828.581 109.159 821.691 115.209L766.607 163.99L763.834 156.427H853.077V185.041H728.162Z" fill="#00233A"/>
<path d="M646.285 189.075C632.504 189.075 620.403 186.092 609.983 180.126C599.563 174.159 591.412 165.882 585.529 155.294C579.731 144.706 576.832 132.521 576.832 118.74C576.832 103.866 579.689 90.9668 585.403 80.0425C591.118 69.0342 599.059 60.5048 609.227 54.4545C619.395 48.4041 631.159 45.3789 644.521 45.3789C658.638 45.3789 670.613 48.6982 680.445 55.3368C690.361 61.8914 697.713 71.177 702.503 83.1937C707.293 95.2105 709.1 109.37 707.923 125.672H677.798V114.58C677.714 99.7902 675.109 88.992 669.983 82.1853C664.857 75.3787 656.789 71.9753 645.781 71.9753C633.344 71.9753 624.101 75.8409 618.05 83.5719C612 91.2189 608.975 102.437 608.975 117.227C608.975 131.008 612 141.681 618.05 149.244C624.101 156.807 632.924 160.588 644.521 160.588C652 160.588 658.428 158.949 663.806 155.672C669.268 152.311 673.47 147.479 676.411 141.176L706.411 150.252C701.201 162.521 693.134 172.059 682.209 178.865C671.369 185.672 659.394 189.075 646.285 189.075ZM599.395 125.672V102.731H693.05V125.672H599.395Z" fill="#00233A"/>
<path d="M500.721 189.075C483.915 189.075 470.259 185.294 459.755 177.731C449.251 170.168 442.865 159.538 440.596 145.84L471.604 141.05C473.201 147.773 476.73 153.067 482.192 156.933C487.654 160.798 494.545 162.731 502.864 162.731C510.175 162.731 515.805 161.302 519.755 158.445C523.788 155.504 525.805 151.513 525.805 146.471C525.805 143.361 525.049 140.882 523.536 139.034C522.108 137.101 518.914 135.252 513.956 133.487C508.999 131.723 501.394 129.496 491.142 126.807C479.713 123.782 470.637 120.546 463.915 117.101C457.192 113.572 452.36 109.412 449.419 104.622C446.478 99.8323 445.007 94.034 445.007 87.2273C445.007 78.74 447.234 71.3451 451.688 65.0426C456.142 58.7401 462.36 53.9083 470.343 50.5469C478.326 47.1016 487.738 45.3789 498.578 45.3789C509.167 45.3789 518.536 47.0176 526.687 50.2948C534.923 53.5721 541.561 58.236 546.603 64.2863C551.645 70.3367 554.754 77.4375 555.931 85.5887L524.923 91.1349C524.166 85.3366 521.519 80.7568 516.982 77.3955C512.528 74.0341 506.562 72.1434 499.083 71.7232C491.94 71.3031 486.184 72.3955 481.814 75.0005C477.444 77.5215 475.259 81.0929 475.259 85.7147C475.259 88.3197 476.142 90.5466 477.906 92.3954C479.671 94.2441 483.2 96.0928 488.494 97.9415C493.873 99.7903 501.856 102.059 512.444 104.748C523.284 107.521 531.94 110.715 538.41 114.328C544.965 117.857 549.67 122.101 552.528 127.059C555.469 132.017 556.939 138.025 556.939 145.084C556.939 158.781 551.939 169.538 541.939 177.353C532.024 185.168 518.284 189.075 500.721 189.075Z" fill="#00233A"/>
<path d="M346.335 189.075C336.503 189.075 328.184 187.227 321.377 183.529C314.571 179.748 309.403 174.748 305.873 168.529C302.428 162.311 300.705 155.462 300.705 147.983C300.705 141.429 301.798 135.546 303.982 130.336C306.167 125.042 309.529 120.504 314.066 116.723C318.604 112.857 324.486 109.706 331.713 107.269C337.175 105.504 343.562 103.908 350.873 102.479C358.268 101.051 366.251 99.7482 374.822 98.5718C383.478 97.3113 392.511 95.9667 401.923 94.5382L391.083 100.715C391.167 91.3029 389.066 84.3702 384.78 79.9165C380.494 75.4627 373.268 73.2358 363.1 73.2358C356.965 73.2358 351.041 74.6644 345.327 77.5215C339.612 80.3786 335.621 85.2946 333.352 92.2693L305.621 83.5719C308.982 72.0594 315.369 62.8157 324.781 55.841C334.276 48.8663 347.049 45.3789 363.1 45.3789C375.2 45.3789 385.83 47.3537 394.99 51.3032C404.234 55.2528 411.082 61.7233 415.536 70.7148C417.973 75.5047 419.444 80.4207 419.948 85.4626C420.452 90.4206 420.704 95.8407 420.704 101.723V185.294H394.108V155.798L398.519 160.588C392.385 170.42 385.2 177.647 376.965 182.269C368.814 186.806 358.604 189.075 346.335 189.075ZM352.385 164.874C359.276 164.874 365.158 163.655 370.032 161.218C374.906 158.781 378.772 155.798 381.629 152.269C384.57 148.739 386.545 145.42 387.553 142.311C389.15 138.445 390.032 134.034 390.2 129.076C390.452 124.034 390.578 119.958 390.578 116.849L399.906 119.622C390.746 121.051 382.889 122.311 376.335 123.404C369.78 124.496 364.15 125.546 359.444 126.555C354.738 127.479 350.579 128.53 346.965 129.706C343.436 130.966 340.453 132.437 338.016 134.118C335.579 135.798 333.688 137.731 332.343 139.916C331.083 142.101 330.453 144.664 330.453 147.605C330.453 150.966 331.293 153.949 332.974 156.555C334.654 159.075 337.091 161.092 340.285 162.605C343.562 164.117 347.595 164.874 352.385 164.874Z" fill="#00233A"/>
<path d="M250.058 185.292V119.747C250.058 115.461 249.763 110.713 249.175 105.503C248.587 100.293 247.2 95.2931 245.016 90.5033C242.915 85.6293 239.721 81.6378 235.436 78.5286C231.234 75.4193 225.52 73.8647 218.293 73.8647C214.428 73.8647 210.604 74.495 206.823 75.7555C203.041 77.016 199.596 79.2008 196.487 82.3101C193.461 85.3352 191.024 89.5369 189.176 94.915C187.327 100.209 186.403 107.016 186.403 115.335L168.377 107.646C168.377 96.0494 170.604 85.5453 175.058 76.1336C179.596 66.7219 186.234 59.243 194.974 53.6968C203.713 48.0666 214.47 45.2515 227.243 45.2515C237.327 45.2515 245.646 46.9322 252.2 50.2935C258.755 53.6548 263.965 57.9405 267.83 63.1505C271.696 68.3606 274.553 73.9068 276.402 79.7891C278.251 85.6714 279.427 91.2596 279.931 96.5536C280.519 101.764 280.814 106.007 280.814 109.285V185.292H250.058ZM155.646 185.292V3.78125H182.747V99.3267H186.403V185.292H155.646Z" fill="#00233A"/>
<path d="M0 185.292V3.78125H74.9994C76.7641 3.78125 79.033 3.86528 81.8061 4.03335C84.5792 4.11738 87.1422 4.36949 89.4951 4.78965C99.9992 6.38627 108.655 9.87363 115.461 15.2517C122.352 20.6299 127.436 27.4365 130.713 35.6718C134.075 43.823 135.755 52.8985 135.755 62.8984C135.755 72.8143 134.075 81.8899 130.713 90.1251C127.352 98.2763 122.226 105.041 115.335 110.419C108.529 115.797 99.9152 119.285 89.4951 120.881C87.1422 121.217 84.5372 121.469 81.68 121.637C78.907 121.806 76.6801 121.89 74.9994 121.89H30.3779V185.292H0ZM30.3779 93.5284H73.7389C75.4196 93.5284 77.3103 93.4444 79.4111 93.2764C81.512 93.1083 83.4447 92.7721 85.2094 92.2679C90.2514 91.0075 94.2009 88.7806 97.0581 85.5873C99.9992 82.3941 102.058 78.7807 103.234 74.7471C104.495 70.7135 105.125 66.7639 105.125 62.8984C105.125 59.0329 104.495 55.0834 103.234 51.0498C102.058 46.9322 99.9992 43.2767 97.0581 40.0835C94.2009 36.8902 90.2514 34.6634 85.2094 33.4029C83.4447 32.8987 81.512 32.6046 79.4111 32.5205C77.3103 32.3525 75.4196 32.2684 73.7389 32.2684H30.3779V93.5284Z" fill="#00233A"/>
<rect x="882.172" y="195.352" width="151.83" height="28.6476" fill="url(#paint0_linear_69_1580)"/>
<defs>
<linearGradient id="paint0_linear_69_1580" x1="850.232" y1="209.675" x2="1082.3" y2="209.675" gradientUnits="userSpaceOnUse">
<stop stop-color="#9AE4FF"/>
<stop offset="0.471154" stop-color="#14A3D6"/>
<stop offset="1" stop-color="#1A386F"/>
</linearGradient>
</defs>
</svg>
